<?xml version="1.0" encoding="UTF-8" standalone="no"?>
<!-- Created with Inkscape (http://www.inkscape.org/) -->

<svg
   xmlns:dc="http://purl.org/dc/elements/1.1/"
   xmlns:cc="http://creativecommons.org/ns#"
   xmlns:rdf="http://www.w3.org/1999/02/22-rdf-syntax-ns#"
   xmlns:svg="http://www.w3.org/2000/svg"
   xmlns="http://www.w3.org/2000/svg"
   xmlns:sodipodi="http://sodipodi.sourceforge.net/DTD/sodipodi-0.dtd"
   xmlns:inkscape="http://www.inkscape.org/namespaces/inkscape"
   width="157.99396mm"
   height="154.21436mm"
   viewBox="0 0 157.99396 154.21436"
   version="1.1"
   id="svg1450"
   inkscape:version="0.92.5 (2060ec1f9f, 2020-04-08)"
   sodipodi:docname="omark.svg">
  <defs
     id="defs1444" />
  <sodipodi:namedview
     id="base"
     pagecolor="#ffffff"
     bordercolor="#666666"
     borderopacity="1.0"
     inkscape:pageopacity="0.0"
     inkscape:pageshadow="2"
     inkscape:zoom="0.35"
     inkscape:cx="217.14202"
     inkscape:cy="0.69670458"
     inkscape:document-units="mm"
     inkscape:current-layer="layer1"
     showgrid="false"
     fit-margin-top="0"
     fit-margin-left="0"
     fit-margin-right="0"
     fit-margin-bottom="0"
     inkscape:window-width="1366"
     inkscape:window-height="741"
     inkscape:window-x="0"
     inkscape:window-y="-10"
     inkscape:window-maximized="1" />
  <metadata
     id="metadata1447">
    <rdf:RDF>
      <cc:Work
         rdf:about="">
        <dc:format>image/svg+xml</dc:format>
        <dc:type
           rdf:resource="http://purl.org/dc/dcmitype/StillImage" />
        <dc:title></dc:title>
      </cc:Work>
    </rdf:RDF>
  </metadata>
  <g
     inkscape:label="Layer 1"
     inkscape:groupmode="layer"
     id="layer1"
     transform="translate(-48.381175,-48.291698)">
    <path
       style="fill:#ff0000;fill-opacity:1;stroke:none;stroke-width:2.16499996;stroke-miterlimit:4;stroke-dasharray:none;stroke-opacity:1"
       d="M 127.3779,48.291698 A 78.997023,77.107139 0 0 0 48.381175,125.39862 78.997023,77.107139 0 0 0 127.3779,202.50606 78.997023,77.107139 0 0 0 206.37514,125.39862 78.997023,77.107139 0 0 0 127.3779,48.291698 Z m 0,30.993974 a 45.735118,46.113091 0 0 1 4.56613,0.230476 45.735118,46.113091 0 0 1 4.52014,0.688848 45.735118,46.113091 0 0 1 4.4297,1.140499 45.735118,46.113091 0 0 1 4.29431,1.580264 45.735118,46.113091 0 0 1 4.11655,2.005047 45.735118,46.113091 0 0 1 3.89743,2.409155 45.735118,46.113091 0 0 1 3.63906,2.789495 45.735118,46.113091 0 0 1 3.34501,3.141927 45.735118,46.113091 0 0 1 3.01739,3.462837 45.735118,46.113091 0 0 1 2.65927,3.74964 45.735118,46.113091 0 0 1 2.2748,3.99821 45.735118,46.113091 0 0 1 1.86707,4.20749 45.735118,46.113091 0 0 1 1.44177,4.37389 45.735118,46.113091 0 0 1 1.00097,4.49741 45.735118,46.113091 0 0 1 0.55087,4.57594 45.735118,46.113091 0 0 1 0.11472,3.26182 45.735118,46.113091 0 0 1 -0.22841,4.60385 45.735118,46.113091 0 0 1 -0.68316,4.55735 45.735118,46.113091 0 0 1 -1.13119,4.46639 45.735118,46.113091 0 0 1 -1.56735,4.32997 45.735118,46.113091 0 0 1 -1.98851,4.15065 45.735118,46.113091 0 0 1 -2.38952,3.92947 45.735118,46.113091 0 0 1 -2.76676,3.66955 45.735118,46.113091 0 0 1 -3.11608,3.3724 45.735118,46.113091 0 0 1 -3.43494,3.04219 45.735118,46.113091 0 0 1 -3.71863,2.68098 45.735118,46.113091 0 0 1 -3.96514,2.29392 45.735118,46.113091 0 0 1 -4.17287,1.88257 45.735118,46.113091 0 0 1 -4.33823,1.45365 45.735118,46.113091 0 0 1 -4.46071,1.00925 45.735118,46.113091 0 0 1 -4.53823,0.55552 45.735118,46.113091 0 0 1 -3.23546,0.11575 45.735118,46.113091 0 0 1 -4.56561,-0.23047 45.735118,46.113091 0 0 1 -4.52066,-0.68885 45.735118,46.113091 0 0 1 -4.42918,-1.1405 45.735118,46.113091 0 0 1 -4.29431,-1.58027 45.735118,46.113091 0 0 1 -4.11655,-2.00504 45.735118,46.113091 0 0 1 -3.89743,-2.40916 45.735118,46.113091 0 0 1 -3.639575,-2.79001 45.735118,46.113091 0 0 1 -3.345016,-3.14192 45.735118,46.113091 0 0 1 -3.017388,-3.46284 45.735118,46.113091 0 0 1 -2.658753,-3.74913 45.735118,46.113091 0 0 1 -2.274794,-3.9982 45.735118,46.113091 0 0 1 -1.867588,-4.2075 45.735118,46.113091 0 0 1 -1.441773,-4.37441 45.735118,46.113091 0 0 1 -1.000972,-4.4974 45.735118,46.113091 0 0 1 -0.55087,-4.57543 45.735118,46.113091 0 0 1 -0.114721,-3.26233 45.735118,46.113091 0 0 1 0.22841,-4.60334 45.735118,46.113091 0 0 1 0.683162,-4.55786 45.735118,46.113091 0 0 1 1.131197,-4.46588 45.735118,46.113091 0 0 1 1.567862,-4.32996 45.735118,46.113091 0 0 1 1.988511,-4.15065 45.735118,46.113091 0 0 1 2.389518,-3.929482 45.735118,46.113091 0 0 1 2.766237,-3.669543 45.735118,46.113091 0 0 1 3.116607,-3.372403 45.735118,46.113091 0 0 1 3.434415,-3.042193 45.735118,46.113091 0 0 1 3.718641,-2.681488 45.735118,46.113091 0 0 1 3.96564,-2.293401 45.735118,46.113091 0 0 1 4.17236,-1.882573 45.735118,46.113091 0 0 1 4.33875,-1.453658 45.735118,46.113091 0 0 1 4.46071,-1.009756 45.735118,46.113091 0 0 1 4.53823,-0.555006 45.735118,46.113091 0 0 1 3.23494,-0.115755 z"
       id="path1456"
       inkscape:connector-curvature="0" />
  </g>
</svg>
